<svg width="393" height="56" viewBox="0 0 393 56" fill="none" xmlns="http://www.w3.org/2000/svg">
<path d="M65.0427 23.2973C62.7329 23.2973 60.8695 24.0825 59.5098 25.6316C58.1624 27.1679 57.4785 29.1479 57.4785 31.5206C57.4785 33.8933 58.187 35.9246 59.5794 37.4182C60.976 38.9203 62.8639 39.6799 65.1901 39.6799C67.9217 39.6799 70.1619 38.4552 71.8533 36.0356L72.099 35.6856L69.3346 32.9715L69.0193 33.4154C67.9012 34.9858 66.6317 35.7539 65.1328 35.7539C64.0475 35.7539 63.1875 35.4168 62.5035 34.7212C61.922 34.128 61.5739 33.394 61.4469 32.4808H72.1563V31.4865C72.1563 29.0156 71.5256 27.0142 70.2806 25.542C69.0193 24.0484 67.2583 23.293 65.0427 23.293M64.8625 27.0953C65.8085 27.0953 66.5702 27.3385 67.1354 27.8165C67.5695 28.1835 67.8398 28.6657 67.9627 29.276H61.6804C61.8729 28.6529 62.1882 28.1707 62.6305 27.8037C63.212 27.3257 63.941 27.0953 64.8625 27.0953Z" fill="#1F2325"/>
<path d="M89.5602 23.2973C88.5363 23.2973 87.5862 23.5704 86.7303 24.1038C86.1037 24.4964 85.5836 25.0341 85.1822 25.7084C84.2771 24.1081 82.8519 23.2973 80.9353 23.2973C79.3217 23.2973 78.0604 23.835 77.1717 24.8976V23.7667H73.2852V39.2148H77.1717V31.239C77.1717 29.8606 77.4174 28.8492 77.9047 28.2347C78.3757 27.6415 78.9941 27.3514 79.7927 27.3514C81.3776 27.3514 82.0861 28.1451 82.0861 29.9289V39.2191H85.9767V31.2134C85.9767 29.835 86.2224 28.8322 86.7098 28.2262C87.1808 27.6373 87.8073 27.3556 88.6305 27.3556C90.1949 27.3556 90.8912 28.1494 90.8912 29.9331V39.2233H94.7777V29.7795C94.7777 27.6373 94.2903 26.0071 93.3279 24.936C92.3573 23.8563 91.0877 23.3101 89.5602 23.3101" fill="#1F2325"/>
<path d="M100.103 16.3158H96.2129V39.2148H100.103V16.3158Z" fill="#1F2325"/>
<path d="M112.59 24.9957C111.55 23.8691 110.116 23.2973 108.314 23.2973C106.287 23.2973 104.555 24.0526 103.167 25.5462C101.782 27.0313 101.082 29.0327 101.082 31.495C101.082 33.9573 101.782 35.9545 103.167 37.4438C104.555 38.9331 106.283 39.6885 108.314 39.6885C110.116 39.6885 111.55 39.1166 112.59 37.99V39.2191H116.477V23.7667H112.59V24.9957ZM111.697 28.431C112.402 29.212 112.742 30.2105 112.742 31.4908C112.742 32.771 112.402 33.7738 111.697 34.5505C111.005 35.3186 110.104 35.6942 108.945 35.6942C107.786 35.6942 106.889 35.3186 106.193 34.5505C105.489 33.7738 105.149 32.771 105.149 31.4908C105.149 30.2105 105.489 29.2077 106.193 28.431C106.889 27.6629 107.786 27.2873 108.945 27.2873C110.104 27.2873 111.001 27.6629 111.697 28.431Z" fill="#1F2325"/>
<path d="M131.084 23.7667H125.908L121.645 29.0711V16.3158H117.754V39.2148H121.645V32.9929L126.534 39.2148H131.658L124.806 30.8464L131.084 23.7667Z" fill="#1F2325"/>
<path d="M145.288 26.4168C145.808 25.3073 146.074 24.1593 146.074 23.0071C146.074 21.0356 145.472 19.4609 144.284 18.3258C143.109 17.2034 141.487 16.6316 139.472 16.6316C137.457 16.6316 135.704 17.2504 134.447 18.4709C133.186 19.6999 132.522 21.3812 132.477 23.4723L132.469 23.9758H136.36L136.368 23.4936C136.384 22.5377 136.65 21.8165 137.183 21.2874C137.719 20.7582 138.428 20.4979 139.353 20.4979C140.213 20.4979 140.869 20.7369 141.352 21.2233C141.831 21.7056 142.065 22.3414 142.065 23.1693C142.065 23.7923 141.884 24.4495 141.536 25.128C141.168 25.8407 140.496 26.7667 139.538 27.8848L132.42 36.2916V39.2233H146.045V35.2973H138.252L142.708 30.138C143.912 28.7553 144.784 27.505 145.292 26.4253" fill="#FDB73C"/>
<path d="M159.862 31.5633V17.0967H156.353L146.18 32.276V35.4893H156.037V39.2148H159.866V35.4893H162V31.5633H159.866H159.862ZM150.738 31.5633L156.033 23.643V31.5633H150.738Z" fill="#FDB73C"/>
<path d="M51.6379 27.8805L40.2815 16.0512L35.7151 20.4381L38.2747 23.3314L40.175 21.505L47.8047 29.4552H44.9338V36.0526H35.9486V30.889L36.1492 30.6501L38.8194 27.8677L27.4711 16L16 27.8677L18.662 30.6586L18.9077 30.889V40H22.6836V29.4552H19.8374L27.4629 21.5562L35.0435 29.4552H32.1726H31.9228V39.9872H48.7097V30.9275L48.9677 30.6629L51.6379 27.8805Z" fill="#FDB73C"/>
<path d="M224.812 8.5H309C319.77 8.5 328.5 17.2304 328.5 28C328.5 38.7696 319.77 47.5 309 47.5H224.812C214.043 47.5 205.312 38.7696 205.312 28C205.312 17.2304 214.043 8.5 224.812 8.5Z" fill="white"/>
<path d="M224.812 8.5H309C319.77 8.5 328.5 17.2304 328.5 28C328.5 38.7696 319.77 47.5 309 47.5H224.812C214.043 47.5 205.312 38.7696 205.312 28C205.312 17.2304 214.043 8.5 224.812 8.5Z" stroke="#E2E8F0"/>
<path d="M229.872 22.8036C229.872 24.9561 228.096 26.701 225.906 26.701C223.716 26.701 221.94 24.9561 221.94 22.8036C221.94 20.6512 223.716 18.9062 225.906 18.9062C228.096 18.9062 229.872 20.6512 229.872 22.8036Z" stroke="#14325C" stroke-width="1.5" stroke-linecap="round" stroke-linejoin="round"/>
<path d="M216.812 32.9416C219.498 31.4497 222.601 30.5983 225.906 30.5983C229.211 30.5983 232.314 31.4497 235 32.9416C233.952 34.3256 230.665 37.0937 225.906 37.0937C221.147 37.0937 217.861 34.3256 216.812 32.9416Z" stroke="#14325C" stroke-width="1.5" stroke-linecap="round" stroke-linejoin="round"/>
<path d="M248.978 34.168C248.241 34.168 247.559 34.0373 246.934 33.776C246.309 33.5053 245.767 33.1273 245.31 32.642C244.853 32.1567 244.493 31.5873 244.232 30.934C243.98 30.2807 243.854 29.5667 243.854 28.792C243.854 28.008 243.98 27.2893 244.232 26.636C244.484 25.9827 244.839 25.4133 245.296 24.928C245.753 24.4427 246.295 24.0693 246.92 23.808C247.545 23.5373 248.227 23.402 248.964 23.402C249.683 23.402 250.327 23.528 250.896 23.78C251.475 24.032 251.96 24.3587 252.352 24.76C252.753 25.1613 253.038 25.5907 253.206 26.048L251.974 26.65C251.731 26.0433 251.353 25.5627 250.84 25.208C250.327 24.8533 249.701 24.676 248.964 24.676C248.236 24.676 247.587 24.8487 247.018 25.194C246.458 25.5393 246.019 26.02 245.702 26.636C245.385 27.252 245.226 27.9707 245.226 28.792C245.226 29.604 245.385 30.318 245.702 30.934C246.029 31.55 246.472 32.0307 247.032 32.376C247.601 32.7213 248.25 32.894 248.978 32.894C249.613 32.894 250.187 32.7587 250.7 32.488C251.213 32.2173 251.619 31.844 251.918 31.368C252.217 30.892 252.366 30.3413 252.366 29.716V29.072L252.996 29.66H248.964V28.47H253.752V29.394C253.752 30.122 253.626 30.78 253.374 31.368C253.122 31.956 252.777 32.46 252.338 32.88C251.899 33.2907 251.391 33.608 250.812 33.832C250.233 34.056 249.622 34.168 248.978 34.168ZM255.451 34V26.454H256.753V34H255.451ZM255.451 25.25V23.57H256.753V25.25H255.451ZM258.774 34V26.454H260.048V27.84L259.908 27.644C260.085 27.2147 260.356 26.8973 260.72 26.692C261.084 26.4773 261.527 26.37 262.05 26.37H262.512V27.602H261.854C261.322 27.602 260.892 27.77 260.566 28.106C260.239 28.4327 260.076 28.8993 260.076 29.506V34H258.774ZM263.668 34V26.454H264.97V34H263.668ZM263.668 25.25V23.57H264.97V25.25H263.668ZM269.692 34.168C268.936 34.168 268.278 33.9813 267.718 33.608C267.158 33.2347 266.762 32.7307 266.528 32.096L267.564 31.592C267.779 32.04 268.073 32.3947 268.446 32.656C268.82 32.9173 269.235 33.048 269.692 33.048C270.103 33.048 270.444 32.95 270.714 32.754C270.985 32.558 271.12 32.3013 271.12 31.984C271.12 31.76 271.055 31.5827 270.924 31.452C270.803 31.312 270.654 31.2047 270.476 31.13C270.299 31.046 270.136 30.9853 269.986 30.948L268.852 30.626C268.171 30.43 267.672 30.15 267.354 29.786C267.046 29.422 266.892 28.9973 266.892 28.512C266.892 28.064 267.004 27.6767 267.228 27.35C267.462 27.014 267.774 26.7527 268.166 26.566C268.568 26.3793 269.016 26.286 269.51 26.286C270.173 26.286 270.766 26.454 271.288 26.79C271.82 27.126 272.198 27.5973 272.422 28.204L271.358 28.694C271.19 28.302 270.938 27.994 270.602 27.77C270.266 27.5367 269.888 27.42 269.468 27.42C269.086 27.42 268.782 27.518 268.558 27.714C268.334 27.9007 268.222 28.1387 268.222 28.428C268.222 28.6427 268.278 28.82 268.39 28.96C268.502 29.0907 268.638 29.1933 268.796 29.268C268.955 29.3333 269.109 29.3893 269.258 29.436L270.49 29.8C271.106 29.9773 271.582 30.2527 271.918 30.626C272.264 30.9993 272.436 31.4473 272.436 31.97C272.436 32.39 272.32 32.768 272.086 33.104C271.853 33.44 271.531 33.7013 271.12 33.888C270.71 34.0747 270.234 34.168 269.692 34.168ZM269.734 37.248C269.473 37.248 269.202 37.2013 268.922 37.108C268.642 37.024 268.414 36.9073 268.236 36.758L268.558 35.904C268.698 36.0253 268.857 36.1187 269.034 36.184C269.212 36.2493 269.384 36.282 269.552 36.282C269.758 36.282 269.921 36.2307 270.042 36.128C270.164 36.0347 270.224 35.9087 270.224 35.75C270.224 35.5447 270.117 35.3813 269.902 35.26C269.688 35.148 269.347 35.064 268.88 35.008L269.202 33.86H270.056L269.902 34.49C270.388 34.5833 270.756 34.7467 271.008 34.98C271.27 35.2133 271.4 35.498 271.4 35.834C271.4 36.254 271.242 36.5947 270.924 36.856C270.616 37.1173 270.22 37.248 269.734 37.248ZM279.319 34V29.226L275.707 23.57H277.261L280.285 28.316H279.725L282.735 23.57H284.289L280.705 29.226V34H279.319ZM286.675 34.168C286.18 34.168 285.742 34.0793 285.359 33.902C284.986 33.7153 284.692 33.4633 284.477 33.146C284.262 32.8193 284.155 32.446 284.155 32.026C284.155 31.6247 284.239 31.2653 284.407 30.948C284.584 30.6213 284.855 30.346 285.219 30.122C285.592 29.898 286.059 29.7393 286.619 29.646L289.419 29.184V30.276L286.913 30.696C286.428 30.78 286.073 30.934 285.849 31.158C285.634 31.382 285.527 31.6573 285.527 31.984C285.527 32.292 285.648 32.5487 285.891 32.754C286.143 32.9593 286.456 33.062 286.829 33.062C287.305 33.062 287.716 32.964 288.061 32.768C288.416 32.5627 288.691 32.2873 288.887 31.942C289.092 31.5967 289.195 31.214 289.195 30.794V28.876C289.195 28.4653 289.041 28.134 288.733 27.882C288.434 27.6207 288.038 27.49 287.543 27.49C287.114 27.49 286.731 27.602 286.395 27.826C286.068 28.0407 285.826 28.33 285.667 28.694L284.533 28.106C284.673 27.7607 284.897 27.4527 285.205 27.182C285.513 26.902 285.872 26.6827 286.283 26.524C286.694 26.3653 287.123 26.286 287.571 26.286C288.15 26.286 288.658 26.398 289.097 26.622C289.536 26.8367 289.876 27.14 290.119 27.532C290.371 27.9147 290.497 28.3627 290.497 28.876V34H289.223V32.572L289.461 32.656C289.302 32.9547 289.088 33.216 288.817 33.44C288.546 33.664 288.229 33.8413 287.865 33.972C287.501 34.1027 287.104 34.168 286.675 34.168ZM292.516 36.8V26.454H293.79V28.078L293.622 27.756C293.902 27.308 294.284 26.9533 294.77 26.692C295.255 26.4213 295.81 26.286 296.436 26.286C297.145 26.286 297.78 26.4587 298.34 26.804C298.909 27.1493 299.357 27.6207 299.684 28.218C300.01 28.806 300.174 29.478 300.174 30.234C300.174 30.9713 300.01 31.6387 299.684 32.236C299.357 32.8333 298.909 33.3047 298.34 33.65C297.78 33.9953 297.14 34.168 296.422 34.168C295.815 34.168 295.26 34.0327 294.756 33.762C294.261 33.4913 293.878 33.1087 293.608 32.614L293.818 32.39V36.8H292.516ZM296.324 32.908C296.8 32.908 297.224 32.7913 297.598 32.558C297.971 32.3247 298.26 32.0073 298.466 31.606C298.68 31.1953 298.788 30.738 298.788 30.234C298.788 29.7113 298.68 29.254 298.466 28.862C298.26 28.4607 297.971 28.1433 297.598 27.91C297.224 27.6673 296.8 27.546 296.324 27.546C295.848 27.546 295.418 27.6627 295.036 27.896C294.662 28.1293 294.364 28.4513 294.14 28.862C293.925 29.2633 293.818 29.7207 293.818 30.234C293.818 30.738 293.925 31.1953 294.14 31.606C294.364 32.0073 294.662 32.3247 295.036 32.558C295.418 32.7913 295.848 32.908 296.324 32.908Z" fill="#020617"/>
<path d="M312 26.5L315 29.5L318 26.5" stroke="#475569" stroke-linecap="round" stroke-linejoin="round"/>
<path d="M349 21.3333H373" stroke="#292D32" stroke-width="2" stroke-linecap="round"/>
<path d="M349 28H373" stroke="#292D32" stroke-width="2" stroke-linecap="round"/>
<path d="M349 34.6667H373" stroke="#292D32" stroke-width="2" stroke-linecap="round"/>
</svg>
